<svg width="64" height="45" viewBox="0 0 64 45" fill="none" xmlns="http://www.w3.org/2000/svg">
<path d="M63.3054 3.9808C62.6891 12.0646 58.8906 19.5737 52.7435 24.8597C46.5965 30.1458 38.6033 32.7769 30.5183 32.1756L11.6026 30.7511L18.7819 39.0997C19.074 39.4382 19.2964 39.8311 19.4364 40.2558C19.5764 40.6805 19.6312 41.1286 19.5976 41.5745C19.564 42.0204 19.4427 42.4553 19.2407 42.8542C19.0387 43.2531 18.76 43.6082 18.4204 43.8992C17.7336 44.4821 16.8448 44.771 15.9465 44.7033C15.0482 44.6357 14.2127 44.2169 13.6209 43.5378L1.0899 28.9657C0.797766 28.6272 0.575328 28.2343 0.435345 27.8096C0.295363 27.385 0.240591 26.9368 0.274169 26.4909C0.307747 26.045 0.429016 25.6102 0.63102 25.2112C0.833025 24.8123 1.11179 24.4572 1.45133 24.1662L16.0234 11.6352C16.7078 11.0467 17.5979 10.7541 18.498 10.8219C19.3981 10.8897 20.2343 11.3123 20.8229 11.9966C21.4114 12.681 21.7039 13.5712 21.6362 14.4712C21.5684 15.3713 21.1458 16.2076 20.4614 16.7961L12.1129 23.9754L31.0286 25.3998C37.3165 25.8658 43.5325 23.8188 48.3132 19.7078C53.0938 15.5967 56.0487 9.75734 56.5296 3.47054C56.5973 2.57202 57.0191 1.73718 57.7023 1.14967C58.3855 0.562166 59.2741 0.270123 60.1726 0.337786C61.0712 0.40545 61.906 0.827279 62.4935 1.51048C63.081 2.19367 63.3731 3.08227 63.3054 3.9808Z" fill="#04336D"/>
</svg>
