<svg width="101" height="97" viewBox="0 0 101 97" fill="none" xmlns="http://www.w3.org/2000/svg">
<path opacity="0.2" d="M79.9577 40.4166V8.08325H29.4577V56.5833H58.916V28.2916H8.41602V76.7916H42.0827M58.916 92.9582L84.166 68.7082M88.3744 56.5833C86.7097 56.5833 85.0824 57.0573 83.6983 57.9455C82.3142 58.8337 81.2354 60.0962 80.5984 61.5732C79.9613 63.0503 79.7946 64.6755 80.1194 66.2436C80.4442 67.8116 81.2458 69.2519 82.4229 70.3824C83.6 71.5128 85.0997 72.2827 86.7323 72.5946C88.365 72.9065 90.0573 72.7464 91.5953 72.1346C93.1332 71.5228 94.4477 70.4867 95.3726 69.1574C96.2974 67.8281 96.791 66.2653 96.791 64.6666" stroke="white" stroke-width="4"/>
</svg>
