<svg width="76" height="118" viewBox="0 0 76 118" fill="none" xmlns="http://www.w3.org/2000/svg">
<path d="M0 0H76V118L39 91.4234L0 118V0Z" fill="#107EBD"/>
<path d="M39.375 30.8437V34.6313C46.7812 35.55 52.5 41.85 52.5 49.5C52.5 55.5187 48.9 60.75 43.65 63.15L39.375 58.875V68.25H48.75L46.4625 65.9625C52.3313 62.7563 56.25 56.55 56.25 49.5C56.25 39.7875 48.8438 31.7812 39.375 30.8437ZM35.625 30.75C31.9688 31.125 28.5 32.55 25.65 34.8938L28.3125 37.5563C30.4408 35.9156 32.9622 34.8618 35.625 34.5V30.75ZM22.875 37.65C20.55 40.5 19.125 43.9688 18.75 47.625H22.5C22.8562 44.9625 23.9062 42.4312 25.5563 40.3125L22.875 37.65ZM26.25 42V45.75H31.875V47.625H30C27.9375 47.625 26.25 49.3125 26.25 51.375V57H35.625V53.25H30V51.375H31.875C33.9563 51.375 35.625 49.7062 35.625 47.625V45.75C35.625 44.7554 35.2299 43.8016 34.5266 43.0984C33.8234 42.3951 32.8696 42 31.875 42H26.25ZM37.5 42V51.375H43.125V57H46.875V51.375H48.75V47.625H46.875V42H43.125V47.625H41.25V42H37.5ZM18.75 51.375C19.125 55.0312 20.5687 58.5 22.9125 61.35L25.575 58.6875C23.9288 56.5605 22.8686 54.0393 22.5 51.375H18.75ZM28.3313 61.4438L25.65 64.1063C28.4988 66.4322 31.9666 67.8728 35.625 68.25V64.5C32.9656 64.1464 30.4483 63.0916 28.3313 61.4438Z" fill="white"/>
</svg>
