<svg width="30" height="30" viewBox="0 0 30 30" fill="none" xmlns="http://www.w3.org/2000/svg">
<g id="material-symbols:check-circle-rounded">
<circle id="Ellipse 26" cx="13.5" cy="13.5" r="10.5" fill="white"/>
<path id="Vector" d="M13.25 17.25L10.5313 14.5312C10.3021 14.3021 10.0208 14.1875 9.6875 14.1875C9.35417 14.1875 9.0625 14.3125 8.8125 14.5625C8.58333 14.7917 8.46875 15.0833 8.46875 15.4375C8.46875 15.7917 8.58333 16.0833 8.8125 16.3125L12.375 19.875C12.6042 20.1042 12.8958 20.2187 13.25 20.2187C13.6042 20.2187 13.8958 20.1042 14.125 19.875L21.2188 12.7813C21.4479 12.5521 21.5625 12.2708 21.5625 11.9375C21.5625 11.6042 21.4375 11.3125 21.1875 11.0625C20.9583 10.8333 20.6667 10.7187 20.3125 10.7187C19.9583 10.7187 19.6667 10.8333 19.4375 11.0625L13.25 17.25ZM15 27.5C13.2708 27.5 11.6458 27.1717 10.125 26.515C8.60417 25.8592 7.28125 24.9688 6.15625 23.8438C5.03125 22.7188 4.14083 21.3958 3.485 19.875C2.82833 18.3542 2.5 16.7292 2.5 15C2.5 13.2708 2.82833 11.6458 3.485 10.125C4.14083 8.60417 5.03125 7.28125 6.15625 6.15625C7.28125 5.03125 8.60417 4.14042 10.125 3.48375C11.6458 2.82792 13.2708 2.5 15 2.5C16.7292 2.5 18.3542 2.82792 19.875 3.48375C21.3958 4.14042 22.7188 5.03125 23.8438 6.15625C24.9688 7.28125 25.8592 8.60417 26.515 10.125C27.1717 11.6458 27.5 13.2708 27.5 15C27.5 16.7292 27.1717 18.3542 26.515 19.875C25.8592 21.3958 24.9688 22.7188 23.8438 23.8438C22.7188 24.9688 21.3958 25.8592 19.875 26.515C18.3542 27.1717 16.7292 27.5 15 27.5Z" fill="#EC2A48"/>
</g>
</svg>
