<svg width="66" height="35" viewBox="0 0 66 35" fill="none" xmlns="http://www.w3.org/2000/svg">
<path d="M64.3186 25.2906C58.6071 31.0445 50.846 34.2972 42.7388 34.3347C34.6316 34.3721 26.8407 31.1914 21.0763 25.4905L7.60115 12.1394L7.65205 23.1502C7.65489 23.5973 7.56944 24.0406 7.40059 24.4547C7.23174 24.8687 6.98282 25.2454 6.6681 25.563C6.35338 25.8807 5.97905 26.1331 5.56658 26.3057C5.1541 26.4784 4.7116 26.5679 4.26445 26.5692C3.36362 26.5675 2.49971 26.2111 1.85979 25.577C1.21986 24.943 0.855424 24.0824 0.845384 23.1816L0.756544 3.96282C0.753703 3.51567 0.839155 3.07236 1.008 2.65831C1.17685 2.24426 1.42577 1.86761 1.74049 1.54997C2.05522 1.23233 2.42955 0.979932 2.84202 0.807263C3.25449 0.634594 3.69699 0.545046 4.14415 0.543755L23.363 0.454917C24.2656 0.450745 25.1329 0.805308 25.7741 1.44061C26.4153 2.07591 26.7779 2.9399 26.782 3.84252C26.7862 4.74514 26.4316 5.61244 25.7963 6.25364C25.161 6.89484 24.297 7.25741 23.3944 7.26158L12.3836 7.31248L25.8588 20.6636C30.343 25.0961 36.4023 27.5689 42.7074 27.5398C49.0125 27.5106 55.0486 24.9819 59.4917 20.5081C60.1259 19.8681 60.9884 19.5061 61.8895 19.502C62.7905 19.4978 63.6563 19.8517 64.2964 20.4859C64.9365 21.1201 65.2984 21.9826 65.3026 22.8837C65.3068 23.7847 64.9528 24.6505 64.3186 25.2906Z" fill="#A3002A"/>
</svg>
